<?xml version="1.0" encoding="utf-8"?>
<!-- Generator: Adobe Illustrator 27.7.0, SVG Export Plug-In . SVG Version: 6.00 Build 0)  -->
<svg version="1.1" id="Layer_1" xmlns="http://www.w3.org/2000/svg" xmlns:xlink="http://www.w3.org/1999/xlink" x="0px" y="0px"
	 viewBox="0 0 122 40" style="enable-background:new 0 0 122 40;" xml:space="preserve">
<style type="text/css">
	.st0{fill:#FE5C45;}
	.st1{fill:#151D4C;}
</style>
<path class="st0" d="M19.8,13.6c3.5,0,6.3-2.8,6.3-6.3c0-3.5-2.8-6.3-6.3-6.3c-3.5,0-6.3,2.8-6.3,6.3C13.5,10.8,16.3,13.6,19.8,13.6
	z"/>
<path class="st1" d="M25.4,21.2c0,0.9,0,1.3,0.2,1.7c0.2,0.4,0.5,0.7,1.1,1.3c0.8,0.8,1.5,1.5,2.7,2.7c0.6,0.6,0.9,0.9,1.1,1
	c1.3,0.8,3,0.1,3.3-1.4c0.1-0.2,0.1-0.7,0.1-1.5c0-0.4,0-0.6,0-0.7c0.1-1,0.9-1.7,1.8-1.8c0.2,0,0.4,0,0.7,0c0.8,0,1.2,0,1.5-0.1
	c1.5-0.3,2.2-2,1.4-3.3c-0.1-0.2-0.4-0.5-1-1.1l-2.7-2.7c-0.6-0.6-0.9-0.9-1.3-1.1c-0.4-0.2-0.8-0.2-1.7-0.2h-2.7
	c-2.1,0-3.1,0-3.7,0.6c-0.6,0.6-0.6,1.7-0.6,3.7V21.2L25.4,21.2z"/>
<path class="st1" d="M14.2,17.3c0-0.9,0-1.3-0.2-1.7c-0.2-0.4-0.5-0.7-1.1-1.3c-0.8-0.8-1.5-1.5-2.7-2.7c-0.6-0.6-0.9-0.9-1.1-1
	c-1.3-0.8-3-0.1-3.3,1.4c-0.1,0.2-0.1,0.7-0.1,1.5c0,0.4,0,0.6,0,0.7c-0.1,1-0.9,1.7-1.8,1.8c-0.2,0-0.4,0-0.7,0
	c-0.8,0-1.2,0-1.5,0.1c-1.5,0.3-2.2,2-1.4,3.3c0.1,0.2,0.4,0.5,1,1.1L4,23C4.7,23.7,5,24,5.4,24.1c0.4,0.2,0.8,0.2,1.7,0.2h2.7
	c2.1,0,3.1,0,3.7-0.6c0.6-0.6,0.6-1.7,0.6-3.7V17.3L14.2,17.3z"/>
<path class="st1" d="M17.8,24.9c-0.9,0-1.3,0-1.7,0.2c-0.4,0.2-0.7,0.5-1.3,1.1c-0.8,0.8-1.5,1.5-2.7,2.7c-0.6,0.6-0.9,0.9-1,1.1
	c-0.8,1.3-0.1,3,1.4,3.3c0.2,0.1,0.7,0.1,1.5,0.1c0.4,0,0.6,0,0.7,0c1,0.1,1.7,0.9,1.8,1.8c0,0.2,0,0.4,0,0.7c0,0.8,0,1.2,0.1,1.5
	c0.3,1.5,2,2.2,3.3,1.4c0.2-0.1,0.5-0.4,1.1-1l2.7-2.7c0.6-0.6,0.9-0.9,1.1-1.3c0.2-0.4,0.2-0.8,0.2-1.7v-2.7c0-2.1,0-3.1-0.6-3.7
	s-1.7-0.6-3.7-0.6H17.8L17.8,24.9z"/>
<path class="st0" d="M19.8,13.6c3.5,0,6.3-2.8,6.3-6.3c0-3.5-2.8-6.3-6.3-6.3c-3.5,0-6.3,2.8-6.3,6.3C13.5,10.8,16.3,13.6,19.8,13.6
	z"/>
<path class="st1" d="M50.6,12.3c-1.6,0-2.7-1.2-2.7-2.7c0-1.5,1.1-2.7,2.7-2.7s2.7,1.2,2.7,2.7C53.3,11.1,52.2,12.3,50.6,12.3z
	 M52.8,27.6c0,0.3,0,0.4-0.1,0.5c-0.1,0.1-0.2,0.1-0.5,0.1h-3.3c-0.3,0-0.4,0-0.5-0.1c-0.1-0.1-0.1-0.2-0.1-0.5V14.7
	c0-0.3,0-0.4,0.1-0.5c0.1-0.1,0.2-0.1,0.5-0.1h3.3c0.3,0,0.4,0,0.5,0.1c0.1,0.1,0.1,0.2,0.1,0.5V27.6z"/>
<path class="st1" d="M65,14.9c0.4,0.3,0.6,0.5,0.7,0.5c0.2,0,0.2,0,0.3-0.1c0-0.1,0-0.3,0-0.7c0-0.1,0-0.1,0-0.2
	c0-0.1,0.1-0.2,0.2-0.2c0,0,0.1,0,0.2,0h3.5c0.3,0,0.4,0,0.5,0.1c0.1,0.1,0.1,0.2,0.1,0.5v12.5c0,2.7-1,4.7-2.7,5.9
	c-1.3,0.9-3,1.2-5,1.2c-2,0-3.7-0.3-5-1.1c-1.2-0.8-2.2-2-2.4-3.3c0-0.2-0.1-0.4,0-0.5c0.1-0.1,0.2-0.1,0.5-0.1h3.5
	c0.2,0,0.3,0,0.4,0c0.1,0,0.1,0.2,0.2,0.4c0.4,0.8,1.3,1.3,2.8,1.3c2.1,0,3.3-0.9,3.3-3.4c0-0.6,0-0.9-0.1-1
	c-0.1-0.1-0.1-0.1-0.2-0.1c-0.1,0-0.4,0.2-1,0.6c-0.9,0.6-2,0.9-3.1,0.9c-4.1,0-6.6-3-6.6-7.1c0-4.1,2.7-7.2,6.7-7.2
	C63,13.8,64.1,14.2,65,14.9z M62.8,24.7c2.1,0,3.4-1.6,3.4-3.6s-1.2-3.6-3.4-3.6c-2,0-3.3,1.5-3.3,3.6S60.9,24.7,62.8,24.7z"/>
<path class="st1" d="M77.9,27.6c0,0.3,0,0.4-0.1,0.5c-0.1,0.1-0.2,0.1-0.5,0.1H74c-0.3,0-0.4,0-0.5-0.1c-0.1-0.1-0.1-0.2-0.1-0.5
	V14.7c0-0.3,0-0.4,0.1-0.5s0.2-0.1,0.5-0.1h3.5c0.1,0,0.2,0,0.2,0c0.1,0,0.1,0.1,0.1,0.1c0,0,0,0.1,0,0.2c0,0.5,0,0.7,0,0.8
	c0.1,0.1,0.1,0.1,0.3,0.1c0.1,0,0.3-0.2,0.7-0.5c0.9-0.7,2.1-1.1,3.5-1.1c3.4,0,5.1,1.9,5.1,5.7v8.1c0,0.3,0,0.4-0.1,0.5
	c-0.1,0.1-0.2,0.1-0.5,0.1h-3.4c-0.3,0-0.4,0-0.5-0.1c-0.1-0.1-0.1-0.2-0.1-0.5V21c0-2.3-0.7-3.4-2.5-3.4c-1.8,0-2.7,1.2-2.7,3.3
	V27.6z"/>
<path class="st1" d="M94.7,27.6c0,0.3,0,0.4-0.1,0.5c-0.1,0.1-0.2,0.1-0.5,0.1h-3.3c-0.3,0-0.4,0-0.5-0.1c-0.1-0.1-0.1-0.2-0.1-0.5
	V14.7c0-0.3,0-0.4,0.1-0.5c0.1-0.1,0.2-0.1,0.5-0.1h3.3c0.3,0,0.4,0,0.5,0.1c0.1,0.1,0.1,0.2,0.1,0.5V27.6z"/>
<path class="st1" d="M104.9,24.7c0.3,0,0.6,0,0.9,0c0.3,0,0.4,0,0.5,0.1c0.1,0.1,0.1,0.2,0.1,0.5v2.5c0,0.2,0,0.3-0.1,0.4
	c-0.1,0.1-0.2,0.1-0.4,0.1c-0.6,0.1-1.5,0.2-2.5,0.2c-2.1,0-4.9-0.5-4.9-5.1v-5c0-0.3,0-0.4-0.1-0.5c-0.1-0.1-0.2-0.1-0.5-0.1h-1.1
	c-0.3,0-0.4,0-0.5-0.1s-0.1-0.2-0.1-0.5v-2.4c0-0.3,0-0.4,0.1-0.5s0.2-0.1,0.5-0.1H98c0.3,0,0.4,0,0.5-0.1c0.1-0.1,0.1-0.2,0.1-0.5
	v-3.1c0-0.3,0-0.4,0.1-0.5c0.1-0.1,0.2-0.1,0.5-0.1h3.4c0.3,0,0.4,0,0.5,0.1c0.1,0.1,0.1,0.2,0.1,0.5v3.1c0,0.3,0,0.4,0.1,0.5
	c0.1,0.1,0.2,0.1,0.5,0.1h2.1c0.3,0,0.4,0,0.5,0.1c0.1,0.1,0.1,0.2,0.1,0.5v2.4c0,0.3,0,0.4-0.1,0.5c-0.1,0.1-0.2,0.1-0.5,0.1h-2.1
	c-0.3,0-0.4,0-0.5,0.1c-0.1,0.1-0.1,0.2-0.1,0.5v4.1C102.9,24.4,103.8,24.7,104.9,24.7z"/>
<path class="st1" d="M121.6,20.4c0,0.6,0,0.9-0.1,1.5c0,0.2,0,0.3-0.1,0.4c-0.1,0.1-0.2,0.1-0.4,0.1h-9.3c-0.3,0-0.4,0-0.5,0.1
	c-0.1,0.1-0.1,0.2,0,0.5c0.3,1.5,1.4,2.2,3.2,2.2c1.2,0,2-0.3,2.4-0.9c0.1-0.2,0.2-0.2,0.2-0.3c0.1,0,0.1,0,0.3,0h3.4
	c0.3,0,0.4,0,0.5,0.1c0.1,0.1,0,0.2,0,0.5c-0.7,2.4-3.4,4-6.8,4c-4.7,0-7.7-2.7-7.7-7.3c0-4.6,3-7.3,7.5-7.3
	C118.7,13.8,121.6,16.5,121.6,20.4z M111.2,19.1c0,0.2-0.1,0.4,0,0.4c0.1,0.1,0.2,0.1,0.5,0.1h5c0.3,0,0.4,0,0.5-0.1
	c0.1-0.1,0.1-0.2,0-0.5c-0.2-1.5-1.2-2.3-2.9-2.3C112.6,16.8,111.5,17.7,111.2,19.1z"/>
<path class="st0" d="M89.7,9.6c0,1.5,1.1,2.7,2.7,2.7c1.6,0,2.7-1.2,2.7-2.7c0-1.5-1.2-2.7-2.7-2.7C90.9,6.9,89.7,8.1,89.7,9.6z"/>
</svg>
