<svg
          xmlns="http://www.w3.org/2000/svg"
          version="1.1"
          id="Layer_1"
          x="0px"
          y="0px"
          viewBox="0 0 107.1 47"
          enable-background="new 0 0 107.1 47"
        >
          <g>
            <g>
              <g>
                <path
                  fill="#1C335A"
                  d="M44.8,33h3.1v-9.3c0-3-0.7-5.3-5-5.3c-4.4,0-5.4,2.1-5.8,4.2h3.6c0-1.3,0.1-3.1,2.1-3.1     c1.9,0,1.9,2.1,1.9,4.1v1.6c-2,0.1-8.1,0.4-8.1,4.7c0,1.8,1.7,3.5,4.1,3.5c2.4,0,3.4-1.5,4-2.1V33z M44.8,27.9     c0,2.1-1.1,3.7-2.8,3.7c-1.1,0-1.8-1-1.8-2.4c0-2.9,3.6-3.1,4.7-3.1V27.9z"
                />
                <path
                  fill="#1C335A"
                  d="M84.6,31.8c-0.4,0.1-0.8,0.1-1.1,0.1C81.1,32,81,31,81,28.9v-8.9h4v-1.2h-4v-5.1l-3.1,2.7v2.4h-2.4v1.2     h2.4v9.4c0,3.5,1.7,4,4.7,4c0.7,0,1.4-0.1,2.1-0.2V31.8z"
                />
              </g>
            </g>
            <path
              fill="#1C335A"
              d="M25.8,15.6v6.7h1.6c2.4,0,4.5-0.8,4.5-4.5c0-3.4-1.6-4.1-4.4-4.1C25.9,13.8,25.8,14.4,25.8,15.6 M3.3,33H0   c0-11.8,9.5-20.6,20.8-20.6l8.3,0c3.8,0,6.2,2.1,6.2,5.7c0,5.8-4.6,5.8-8.4,5.8h-1.1V33h-3.4v-16c0-2.8-0.2-3.3-1.6-3.5   C17.7,12.8,3.2,16.5,3.3,33"
            />
            <path
              fill="#1C335A"
              d="M74,31.1c-0.5,0.2-1.6,0.5-2.9,0.5c-4.3,0-5.6-4.3-5.6-7.4h8.7c0-2.1-0.4-5.9-5.7-5.9c-4.1,0-6.4,2.1-6.4,7   c0,5.1,2.8,8,7.5,8c2.1,0,3.7-0.6,4.3-0.8V31.1z M65.5,23c0-1.2,0.6-3.6,2.9-3.6c2.7,0,2.7,2.9,2.7,3.6H65.5z"
            />
            <path
              fill="#1C335A"
              d="M52.1,33h3.1v-7.3c0-2.1,0.9-4.6,4-4.6c0.5,0,1.1,0.2,1.6,0.4v-2.9c-0.5-0.1-1.1-0.2-1.7-0.2   c-2.5,0-3.4,2.6-3.8,4h-0.1v-4l-5.5,1V20c1.9,0.1,2.4,0.6,2.4,2.7V33z"
            />
            <path
              fill="#1C335A"
              d="M92.6,33.3c4.5,0,6.6-2.5,6.6-7.4c0-4.4-2.2-7.5-6.6-7.5c-4.5,0-6.6,2.4-6.6,7.5   C86,30.1,87.7,33.3,92.6,33.3 M89.3,25.9c0-2.7,0.2-6.4,3.2-6.4c3,0,3.2,3.6,3.2,6.4c0,3.1-0.2,6.4-3.2,6.4   C89.6,32.3,89.3,28.4,89.3,25.9"
            />
          </g>
        </svg>