<svg
          id="page-logo"
          xmlns="http://www.w3.org/2000/svg"
          width="139"
          height="50"
          viewBox="0 0 139 50"
        >
          <g fill="none" fill-rule="evenodd">
            <path
              fill="#0F100E"
              d="M45.197.073c-.721 0-1.38.092-1.96.274a6.101 6.101 0 0 0-1.495.685c-.37.25-.76.56-1.155.938-.341.315-.761.732-1.047 1.017a5.285 5.285 0 0 0-.75-1.396C38.013.587 36.81.073 35.207.073c-.72 0-1.379.092-1.958.274a6.247 6.247 0 0 0-1.497.685c-.368.25-.76.56-1.152.938-.372.341-.997.983-1.312 1.297V.554h-5.64v.656c.312.02.61.063.88.117.305.07.57.174.799.321.304.213.548.493.719.829.168.336.255.71.255 1.11v14.348h2.98V4.625c1.324-1.589 2.602-2.67 3.977-2.787.105-.01.209-.019.306-.019 1.353 0 2.078.85 2.355 1.168.549.636.84 1.632.84 2.882v12.066h3.193V3.772c1.026-1.115 2.078-1.83 3.293-1.934.106-.01.206-.019.304-.019 1.355 0 2.08.85 2.357 1.168.547.636.837 1.632.837 2.882v12.066h3.194V5.626c0-1.672-.393-3.033-1.164-4.035C48.001.587 46.798.073 45.197.073M14.266 1.245c.321.028.676.087 1.055.18.412.096.738.22.968.364.297.21.543.479.712.792.175.313.264.67.264 1.047v14.307h2.98V.553h-5.979v.692M103.901 27.385c.321.027.676.087 1.056.18.411.095.737.218.967.362.298.21.544.48.712.793.175.313.264.67.264 1.047v14.307h2.98V26.693H103.9v.692M113.395 27.385c.32.027.675.087 1.055.18.411.095.737.218.967.362.298.21.544.48.712.793.175.313.264.67.264 1.047v14.307h2.98V26.693h-5.978v.692M65.128 15.208c-.883 1.508-2.09 2.27-3.602 2.27-.913 0-1.692-.229-2.315-.685-.614-.454-1.138-1.09-1.545-1.88a9.58 9.58 0 0 1-.887-2.699c-.186-1-.281-2.104-.281-3.283 0-.897.073-1.833.237-2.787.15-.96.423-1.833.804-2.579.41-.82.95-1.476 1.602-1.943.657-.478 1.46-.719 2.385-.719.908 0 1.682.238 2.312.709.628.463 1.136 1.094 1.516 1.86.363.715.635 1.597.813 2.629.178 1.014.269 2.002.269 2.929 0 2.61-.441 4.693-1.308 6.178M61.524.063c-2.523 0-4.587.87-6.139 2.579-1.555 1.715-2.346 3.95-2.346 6.646 0 1.402.228 2.682.675 3.806.443 1.128 1.052 2.096 1.8 2.875a7.94 7.94 0 0 0 2.631 1.814c.98.41 2.029.624 3.117.624 1.309 0 2.506-.234 3.555-.686 1.052-.455 1.987-1.153 2.786-2.09.705-.815 1.26-1.818 1.64-2.993.38-1.175.575-2.383.575-3.599 0-2.707-.79-4.903-2.347-6.53C65.917.888 63.918.062 61.524.062M117.805 7.737h-8.346l.004-.103.007-.727c.084-1.77.55-3.181 1.365-4.187.843-1.042 1.916-1.57 3.194-1.57.767 0 1.406.182 1.898.528.486.343.876.799 1.155 1.343.257.51.438 1.15.552 1.91.107.693.17 1.346.17 1.946v.86zm1.61-5.435c-.56-.694-1.29-1.245-2.186-1.643-.897-.4-1.975-.6-3.236-.6-1.228 0-2.33.256-3.32.765a7.645 7.645 0 0 0-2.474 2.023 9.382 9.382 0 0 0-1.565 2.933 10.703 10.703 0 0 0-.536 3.326c0 1.26.168 2.453.502 3.58.332 1.127.835 2.118 1.514 2.968.675.844 1.537 1.516 2.576 2.006 1.05.496 2.262.743 3.652.743 1.573 0 2.968-.41 4.181-1.233.062-.043.117-.088.17-.13l-.378-.767a4.977 4.977 0 0 1-2.043.71c-3.272.382-6.3-2.57-6.763-6.597a9.307 9.307 0 0 1-.06-.975h-.002v-.73h11.564V7.538c0-1.045-.134-2.019-.398-2.912-.26-.892-.657-1.669-1.199-2.324zM137.737 1.584c-.771-1.01-1.974-1.52-3.58-1.52-.717 0-1.379.089-1.954.273-.587.188-1.09.418-1.496.684a8.467 8.467 0 0 0-1.156.94c-.367.342-.993.978-1.307 1.295l-.011-.4V.564h-5.636v.64c.317.022.61.058.886.117a2.4 2.4 0 0 1 .794.316c.306.212.55.49.72.824.17.345.253.716.253 1.115v14.36h2.983V4.613c1.324-1.588 2.601-2.668 3.976-2.788.104-.006.209-.015.308-.015 1.352 0 2.077.848 2.353 1.167.548.636.838 1.633.838 2.886v12.072h3.193V5.618c0-1.674-.39-3.035-1.164-4.034"
            ></path>{" "}
            <path
              fill="#0F100E"
              d="M102.278 9.656c-.435-.391-.994-.757-1.666-1.076a16.186 16.186 0 0 0-2.174-.869 40.589 40.589 0 0 1-1.997-.703 6.87 6.87 0 0 1-1.355-.68 2.633 2.633 0 0 1-.863-.957c-.19-.37-.291-.841-.291-1.395 0-.564.124-1.023.384-1.412.135-.249.333-.468.58-.658.588-.48 1.446-.799 2.432-.88.06-.005.125-.005.184-.01h.003a7.735 7.735 0 0 1 3.665.966c.125-.218.25-.442.364-.655l-.02-.007C100.31.48 98.9.056 97.336.056c-.152 0-.309.003-.46.01-1.445.07-2.848.657-3.863 1.608-.992.934-1.5 2.138-1.5 3.578 0 .792.163 1.487.477 2.062.32.591.733 1.09 1.232 1.49a7.336 7.336 0 0 0 1.702.999c.672.29 1.286.52 1.832.678.69.21 1.326.434 1.895.65.583.233 1.076.488 1.454.76.394.28.694.617.897.995.205.379.308.834.308 1.355 0 1.003-.326 1.786-.967 2.33-.613.52-1.616.808-2.816.808-.82 0-1.568-.185-2.226-.548a6.48 6.48 0 0 1-1.686-1.35 7.891 7.891 0 0 1-1.129-1.71 7.717 7.717 0 0 1-.558-1.423l-.027-.118h-.5v5.705h.567l.406-1.314s1.747 1.83 4.853 1.83v.002l.036-.002c1.926 0 3.557-.525 4.71-1.514 1.165-.997 1.756-2.298 1.756-3.87 0-.785-.126-1.448-.377-1.986a4.272 4.272 0 0 0-1.074-1.425M10.876 9.656C10.44 9.265 9.883 8.9 9.21 8.58a16.19 16.19 0 0 0-2.172-.869 39.343 39.343 0 0 1-1.998-.703 6.856 6.856 0 0 1-1.355-.68 2.62 2.62 0 0 1-.863-.957c-.19-.37-.293-.841-.293-1.395 0-.564.127-1.023.387-1.412a2.07 2.07 0 0 1 .578-.658c.588-.48 1.447-.799 2.432-.88.063-.005.127-.005.184-.01h.004a7.75 7.75 0 0 1 3.665.966c.125-.218.25-.442.364-.655l-.02-.007C8.91.48 7.5.056 5.935.056c-.154 0-.309.003-.46.01-1.445.07-2.848.657-3.863 1.608C.617 2.608.11 3.812.11 5.252c0 .792.165 1.487.478 2.062.321.591.734 1.09 1.233 1.49a7.338 7.338 0 0 0 1.703.999c.669.29 1.286.52 1.83.678.69.21 1.327.434 1.896.65.583.233 1.076.488 1.453.76.394.28.695.617.898.995.205.379.308.834.308 1.355 0 1.003-.326 1.786-.968 2.33-.611.52-1.616.808-2.816.808-.818 0-1.568-.185-2.225-.548a6.453 6.453 0 0 1-1.686-1.35 7.91 7.91 0 0 1-1.131-1.71 7.756 7.756 0 0 1-.556-1.423l-.03-.118H0v5.705h.565l.407-1.314s1.748 1.83 4.853 1.83v.002l.037-.002c1.926 0 3.556-.525 4.709-1.514 1.166-.997 1.755-2.298 1.755-3.87 0-.785-.123-1.448-.375-1.986a4.268 4.268 0 0 0-1.075-1.425"
            ></path>{" "}
            <path
              fill="#0F100E"
              d="M82.718.063c-.72 0-1.38.09-1.957.274a6.276 6.276 0 0 0-1.498.684c-.37.246-.759.567-1.153.94-.37.342-.995.978-1.311 1.295l-.007-.4V.563H71.16v.64c.312.022.604.058.88.117a2.4 2.4 0 0 1 .794.315c.307.213.548.49.72.825.172.345.257.716.257 1.115v14.36h2.981V4.613c1.321-1.588 2.603-2.668 3.976-2.788.106-.006.208-.015.307-.015 1.354 0 2.078.848 2.35 1.167.55.635.844 1.633.844 2.886v12.072h3.188V5.618c0-1.674-.39-3.035-1.163-4.034-.77-1.01-1.974-1.52-3.576-1.52M40.831 41.167c-.882 1.506-2.09 2.267-3.6 2.267-.914 0-1.695-.231-2.317-.684-.614-.457-1.138-1.089-1.544-1.88a9.664 9.664 0 0 1-.89-2.698 18.179 18.179 0 0 1-.278-3.28c0-.9.073-1.842.236-2.788.151-.964.426-1.836.804-2.583.41-.82.95-1.476 1.603-1.942.656-.48 1.46-.72 2.386-.72.906 0 1.68.239 2.31.708.625.463 1.138 1.093 1.517 1.86.361.716.636 1.598.813 2.629.178 1.015.268 2.004.268 2.93 0 2.612-.44 4.69-1.308 6.18M37.228 26.02c-2.525 0-4.588.87-6.14 2.582-1.555 1.707-2.346 3.948-2.346 6.645 0 1.398.226 2.678.674 3.806.445 1.129 1.052 2.093 1.8 2.871a7.958 7.958 0 0 0 2.633 1.819c.98.408 2.028.621 3.116.621 1.309 0 2.505-.232 3.558-.685 1.053-.457 1.984-1.157 2.783-2.087.707-.818 1.258-1.82 1.642-2.997.38-1.174.573-2.386.573-3.6 0-2.706-.787-4.903-2.344-6.529-1.558-1.624-3.556-2.446-5.95-2.446M74.948 43.386l-.023.85s-1.14.073-2.047.011c-1.292-.082-2.283-.338-2.83-1.017-.547-.68-.82-1.64-.82-2.878V27.466h-1.891v-.758h1.957v-2.48h2.944v2.48h3.128v.758h-3.095v11.973c0 .674.027 1.235.074 1.686.093.916 1.057 2.25 2.578 2.25.025 0 .025.01.025.01"
            ></path>{" "}
            <path
              fill="#0F100E"
              transform="translate(10.576 25.888)"
              d="M12.504.82v.705h.518c.785 0 1.09.702.785 1.885-.436 1.713-4.312 11.053-4.312 11.053C9.017 13.54 5.49 3.148 5.49 2.359c0-.571.35-.834.784-.834h.73V.82H.172v.705h.607c.783 0 1.218.351 1.783 1.623.305.703 4.353 12.063 5.487 15.017h1.43c1.227-2.81 3.514-8.18 3.893-9.136.654-1.624 2.754-6.407 3.408-7.021.39-.396.827-.483 1.35-.483h.519V.82h-6.144M49.336 14.319c-.902 1.387-2.141 2.087-3.69 2.087-.938 0-1.74-.213-2.376-.63a5.116 5.116 0 0 1-1.584-1.729 8.269 8.269 0 0 1-.91-2.483 14.902 14.902 0 0 1-.285-3.016c0-.827.072-1.69.239-2.563.158-.886.438-1.69.826-2.377.42-.752.973-1.359 1.643-1.785.673-.442 1.499-.662 2.447-.662.93 0 1.724.218 2.37.65a4.826 4.826 0 0 1 1.555 1.71c.37.66.652 1.473.834 2.42.182.932.275 1.843.275 2.693 0 2.404-.45 4.315-1.344 5.685m1.368-13.5v1.458C49.254.857 47.424.13 45.246.13c-2.395 0-4.352.824-5.825 2.448-1.475 1.622-2.226 3.747-2.226 6.307 0 1.325.216 2.539.642 3.61.42 1.07.996 1.987 1.706 2.725a7.534 7.534 0 0 0 2.498 1.724c.93.386 1.923.59 2.956.59 1.242 0 2.377-.22 3.375-.65.866-.375 1.64-.935 2.329-1.651v.455s.003.337.003 1.086c0 2.218-.315 3.596-1.243 4.551-1.284 1.322-2.553 1.466-3.29 1.554-1.532.182-3.566-.604-3.566-.604l-.684.926c.35.175.797.37 1.335.534.679.206 1.581.34 2.408.376 1.967-.048 4.106-.569 5.64-1.953 1.542-1.455 2.315-3.72 2.315-7.507V.82h-2.915M124.042 14.319c-.902 1.387-2.143 2.087-3.69 2.087-.939 0-1.739-.213-2.377-.63a5.114 5.114 0 0 1-1.584-1.729 8.31 8.31 0 0 1-.91-2.483c-.19-.92-.285-1.934-.285-3.016 0-.827.072-1.69.24-2.563.157-.886.436-1.69.825-2.377.42-.752.973-1.359 1.643-1.785.674-.442 1.498-.662 2.448-.662.93 0 1.723.218 2.368.65a4.792 4.792 0 0 1 1.555 1.71c.372.66.655 1.473.835 2.42.182.932.276 1.843.276 2.693 0 2.404-.452 4.315-1.344 5.685m1.368-13.5v1.458C123.958.857 122.13.13 119.951.13c-2.395 0-4.351.824-5.825 2.448-1.475 1.622-2.225 3.747-2.225 6.307 0 1.325.216 2.539.64 3.61.421 1.07.997 1.987 1.708 2.725a7.506 7.506 0 0 0 2.498 1.724c.93.386 1.922.59 2.956.59 1.24 0 2.377-.22 3.374-.65.867-.375 1.64-.935 2.329-1.651v.455s.004.337.004 1.086c0 2.218-.315 3.596-1.244 4.551-1.283 1.322-2.551 1.466-3.288 1.554-1.533.182-3.568-.604-3.568-.604l-.683.926c.35.175.797.37 1.336.534.677.206 1.58.34 2.405.376 1.97-.048 4.108-.569 5.642-1.953 1.543-1.455 2.315-3.72 2.315-7.507V.82h-2.915"
              mask="url(#b)"
            ></path>{" "}
            <path
              fill="#0F100E"
              d="M101.4 27.666c.016-.008.03-.018.047-.026.324-.15.737-.25 1.24-.255v-.692h-6.03v.758h.928c.93 0 1.302.95.697 2.588l-2.867 10.39-4.212-12.994h-1.632l-4.378 13.791-3.578-12.496c-.28-.843.046-1.28.557-1.28h.79v-.757h-6.588v.758h.362c1.114 0 1.627.388 1.951 1.279l4.536 15.291h2.638l3.705-12.11h.233l4.008 12.11h1.929c1.558-3.907 4.06-13.354 4.817-15.428.002-.006-.003.007 0 0 .148-.412.455-.746.847-.927"
            ></path>
          </g>
        </svg>