<?xml version="1.0" encoding="UTF-8" standalone="no"?>
<!DOCTYPE svg PUBLIC "-//W3C//DTD SVG 1.1//EN" "http://www.w3.org/Graphics/SVG/1.1/DTD/svg11.dtd">
<svg class="w-full" width="265" height="110" viewBox="0 0 265 110" fill="none" role="img" aria-label="Verdens Kuleste Dag"><title>Verdens Kuleste Dag</title><path fill="#000" d="M197.65 19.46h.1c.3 0 .6-.3.8-.8l.1-2.5c0-.2-.1-.4-.2-.6-.1-.2-.3-.3-.5-.3l-8.4-.4.1-3.1 7.2.3c.08 0 .15-.01.22-.04.13-.03.25-.1.38-.16.2-.1.3-.3.3-.5l.1-2.5c0-.4-.4-.8-.8-.8l-7.2-.3.1-3.1 8.3.4c.2 0 .4-.1.6-.2.2-.1.3-.3.3-.5l.1-2.5c0-.4-.4-.8-.8-.8l-12.1-.5c-.4-.1-.8.3-.8.7l-.8 16.8c0 .2.1.4.2.6a.53.53 0 0 0 .27.25.6.6 0 0 0 .23.05l12.2.5Z"></path><path fill="#000" fill-rule="evenodd" d="M159.8 19.2c.15-.02.3-.04.45-.04 2.3-.3 4.3-1.2 5.5-2.7 1.6-1.8 2.3-4.1 2.2-6.8a8.8 8.8 0 0 0-2.9-6.5 8.8 8.8 0 0 0-6.8-2.2l-6.5.4c-.4 0-.7.4-.7.8l.9 16.8.03.06.02.04.02.07c.05.14.1.26.23.33.2.1.4.2.6.2l6.5-.4c.15 0 .3-.03.45-.05Zm-.75-3.94-2.6.1-.5-10.3 2.6-.1c1.4-.1 2.5.3 3.3 1.1.8.8 1.3 2.2 1.4 3.8.1 2.4-.5 5.2-4.2 5.4Zm-37.75 7.89h.26l3.1-.2c.5-.1.8-.5.7-.9l-.8-5.4 2.5-.4 4.4 5.3.14.13a1.15 1.15 0 0 0 .55.18l3.4-.5c.3 0 .5-.2.6-.5.1-.3.1-.6-.1-.8l-4.5-5.4c1.9-1.3 2.8-3.3 2.5-5.6-.3-1.9-1.2-3.3-2.6-4.2-1.4-.8-3.2-1.1-5.3-.8l-7.2 1c-.2 0-.4.1-.5.3-.2.2-.2.4-.2.6l2.4 16.6c0 .2.1.4.3.5a.86.86 0 0 0 .36.1Zm2.65-10.7-.6-4 3.1-.3c2.4-.3 2.9.7 3 1.6.1.6-.1 1.1-.4 1.5-.4.4-1.1.7-2.1.8l-3 .4Z" clip-rule="evenodd"></path><path fill="#000" d="M90.95 28.86c.1.4.5.7.9.6l12.1-2.8c.2-.1.4-.2.5-.4a.99.99 0 0 0 .1-.42v-.18l-.6-2.4c-.2-.4-.6-.7-1-.6l-8.1 1.9-.7-3 7-1.7c.4-.1.7-.5.6-.9l-.6-2.4c-.04-.08-.07-.16-.12-.23a.71.71 0 0 0-.28-.27.98.98 0 0 0-.38-.1h-.22l-7 1.7-.7-3 8-1.9c.2-.1.4-.2.5-.4a.7.7 0 0 0 .06-.15l.01-.05.01-.05a1 1 0 0 0 .02-.12v-.23l-.6-2.4c-.2-.4-.6-.7-1-.6l-11.8 2.8c-.2.1-.4.2-.5.4a.96.96 0 0 0-.09.36v.24l3.9 16.3ZM65.7 37.35h.15c.1 0 .2-.1.1-.1l3.3-1.1c.3-.1.5-.4.5-.7l.9-18c0-.3-.1-.5-.3-.7-.2-.1-.5-.2-.7-.1l-3 1c-.3.1-.5.4-.5.7l-.4 12.4-8-9.5a.92.92 0 0 0-.65-.23.8.8 0 0 0-.25.04l-3.2 1.1c-.2.1-.4.3-.5.5 0 .2 0 .5.2.7l11.8 13.7c.13.12.25.2.4.25l.16.04Zm164.35-14.19h.2c.3-.1.6-.3.6-.6l2.4-16.6v-.09l-.02-.07c-.02-.1-.06-.2-.1-.3l-.08-.14c-.1-.2-.3-.3-.5-.3l-3-.4c-.4 0-.8.3-.9.7l-1.3 9.3-5.1-10.6c-.1-.2-.3-.4-.6-.4l-3.6-.5c-.2-.1-.4 0-.6.1-.2.1-.3.3-.3.5l-2.4 16.6c0 .4.3.8.7.9l3 .4c.2 0 .4-.1.6-.2.2-.1.3-.3.3-.5l1.5-10.4 5.7 11.8c.1.2.3.4.6.4l2.9.4Zm24.2 5.2c1.2.3 2.3.3 3.4.2 2.6-.3 4.6-1.8 5-4.1.7-2.9-.5-5-3.6-6.4l-3-1.4c-1.9-.9-1.9-1.3-1.7-1.9.2-.4.4-.8.9-1 .5-.3 1.2-.3 2-.1.8.2 2.7.8 2.5 2.5 0 .3.2.7.6.8l2.9.7c.2.1.4 0 .6-.1.1-.1.3-.3.3-.5.5-3.5-1.7-6.2-6-7.2-4-1-7.5.7-8.3 4-.7 2.9.5 5 3.7 6.4l2.9 1.3c1.94.87 1.81 1.46 1.71 1.95v.05c-.3 1.3-1.8 1.4-3.1 1.1-1.5-.4-3.2-1.2-2.9-3.1.1-.4-.2-.8-.6-.9l-2.9-.7c-.2-.1-.4 0-.6.1-.07.06-.16.15-.23.26a.46.46 0 0 0-.08.24c-.6 3.7 1.8 6.7 6.5 7.8Z"></path><path fill="#000" fill-rule="evenodd" d="M159.92 99.37a1 1 0 0 1 .13-.01c5-.7 8.2-4.5 7.8-9.7-.3-5.5-4.3-8.9-9.8-8.5l-6.5.4c-.4 0-.7.4-.7.8l1.1 16.8c0 .2.1.4.3.5.2.1.4.2.6.2l6.5-.4c.1 0 .23-.03.35-.05l.22-.04Zm-.97-4.01-2.6.2-.7-10.2 2.6-.2c3.7-.3 4.6 2.5 4.8 4.8.1 1.6-.2 3-.9 3.9-.7.9-1.8 1.4-3.2 1.5Zm41.3 3.5h.1c.3 0 .5-.1.6-.4a.58.58 0 0 0 .16-.5.63.63 0 0 0-.06-.2l-6.5-16.9a.76.76 0 0 0-.7-.5l-3.5-.1a.75.75 0 0 0-.7.5l-7.1 16.7c-.1.2 0 .5.1.7.1.3.3.4.6.4l3.1.1c.3 0 .6-.2.7-.5l1.5-3.6 6.5.1 1.3 3.6c.1.3.4.5.7.5l3.2.1Zm-6.7-8.2-3.4-.1 1.8-4.3 1.6 4.4Z" clip-rule="evenodd"></path><path fill="#000" d="M230.85 101.96h.2c.3-.1.6-.4.5-.6l1.1-8.5c0-.5-.3-.8-.7-.9l-6.3-.8c-.2 0-.4.1-.6.2a.53.53 0 0 0-.2.18.6.6 0 0 0-.1.32l-.3 2.2c0 .5.3.8.7.9l2.5.3c-.3 1.5-1.8 2.3-3.7 2.1-3.7-.4-3.6-4.3-3.4-5.9.2-1.7.7-3.1 1.6-3.9.8-.8 1.9-1.2 3.2-1 1.8.2 2.8 1.1 2.9 2.8 0 .4.3.7.7.7l3.1.4c.2 0 .4 0 .6-.2a.65.65 0 0 0 .13-.22l.06-.27.01-.06v-.05c-.3-4-2.8-6.6-7-7.1-2.5-.3-4.9.3-6.7 1.8-1.8 1.5-3 3.8-3.3 6.5-.7 5.7 2.3 9.9 7.5 10.5 1.6.2 3.2-.2 4.4-.9v.4c0 .4.3.8.7.8l2.4.3Zm-221.2 7.5h.38l.08-.02c.05 0 .1-.03.14-.08l2.7-1.6c.4-.2.5-.7.3-1.1l-2.3-3.9.5-2.1 8 3 .33-.01a.88.88 0 0 0 .37-.1l3.3-1.9c.3-.1.4-.4.4-.7 0-.3-.2-.6-.5-.7l-10.8-4.1 2.2-9.1c.1-.3 0-.6-.3-.8-.3-.1-.6-.2-.9 0l-3.1 1.8a.91.91 0 0 0-.25.2.6.6 0 0 0-.12.17.39.39 0 0 0-.03.14l-2.1 9.2-3.2-5.6c-.2-.4-.7-.5-1.1-.3l-2.7 1.6c-.2.1-.3.3-.4.5 0 .2 0 .4.1.6l8.5 14.5c.1.2.3.3.5.4Zm28.7-17.2c1 .3 2.1.5 3.2.3.9-.1 1.9-.4 2.9-.7 2.3-1.1 3.8-2.5 4.5-4.3.7-1.9.5-3.9-.5-6.2l-4.2-9.1c-.1-.4-.6-.6-1-.4l-2.8 1.3c-.1 0-.17.05-.23.12a.67.67 0 0 0-.24.56c0 .1.02.21.07.32l4.2 9.1c1.1 2.3.6 3.9-1.4 4.8-2 .9-3.5.2-4.6-2.1l-4.2-9.1c-.1-.4-.6-.6-1-.4l-2.9 1.3c-.2 0-.3.2-.4.4-.1.2-.1.4 0 .6l4.2 9.1c1.1 2.2 2.5 3.7 4.4 4.4Zm28.7-11c.1.3.4.5.8.5 0 0 .1-.1.2-.1l11.2-3.9c.4-.1.6-.6.5-1l-.8-2.3-.09-.12a2.34 2.34 0 0 0-.09-.1.71.71 0 0 0-.22-.18c-.2-.1-.4-.1-.6 0l-7.5 2.6-4.5-12.8-.02-.03-.02-.03-.05-.06c-.08-.1-.17-.21-.3-.28-.2-.1-.4-.1-.6 0l-3 1c-.4.1-.6.6-.5 1l5.6 15.8Zm28.7-8.6c.2.1.3.1.5.1l11.8-2.9c.5-.2.7-.6.6-1l-.6-2.4c-.1-.2-.2-.4-.4-.5-.2-.1-.4-.2-.6-.1l-8.1 2.1-.8-3 7-1.8c.5-.2.7-.6.6-1l-.6-2.4c-.1-.2-.2-.4-.4-.5-.2-.1-.4-.2-.6-.1l-7 1.8-.8-3 8-2.1.29-.16a.65.65 0 0 0 .21-.24c.1-.2.2-.4.1-.6l-.6-2.4c-.1-.5-.6-.7-1-.6l-11.7 3.1c-.5.2-.7.6-.6 1l4.3 16.2c.1.2.2.4.4.5Zm27.2-12c.9 3.6 4.1 5.4 8.7 4.8.1 0 .3 0 .2-.3 2-.3 3.8-1.1 4.9-2.3 1.2-1.3 1.8-2.9 1.5-4.6-.4-2.9-2.4-4.4-5.8-4.5l-3.3-.1c-2-.1-2.2-.5-2.3-1.1-.1-.5.1-.9.4-1.3.4-.4 1-.7 1.8-.8.9-.1 2.8-.2 3.3 1.4.1.4.5.7.9.6l2.9-.5c.15 0 .3-.06.4-.16a.52.52 0 0 0 .1-.14c.1-.2.2-.4.1-.6-.9-3.4-3.9-5-8.3-4.3-4 .7-6.6 3.6-6.1 6.9.4 2.9 2.4 4.4 5.9 4.5l3.2.1c2.08.1 2.2.69 2.3 1.18v.02c.2 1.3-1.2 2-2.5 2.2-1.4.2-3.3.1-3.8-1.8-.1-.4-.5-.7-.9-.6l-3 .5c-.2 0-.4.1-.5.3-.1.2-.2.4-.1.6Zm37.6 1.3 3.2-.2c.4-.1.7-.5.4-.8l-.9-13.5 5.3-.3c.2 0 .4-.1.5-.3.1-.2.2-.4.2-.6l-.2-2.5c0-.4-.4-.7-.8-.7l-15.2 1a.6.6 0 0 0-.3.08.76.76 0 0 0-.2.17.88.88 0 0 0-.2.55l.2 2.5c0 .2.1.4.3.5.2.1.4.2.6.2l5.3-.3.9 13.5c0 .2.1.4.3.5.2.1.4.2.6.2Zm39-.5h.1c.3-.1.6-.4.7-.8l.1-2.5c0-.2-.1-.4-.2-.6-.2-.1-.4-.2-.6-.2l-8.4-.2.1-3.1 7.2.2c.4 0 .8-.4.8-.8l.1-2.5c0-.2-.1-.4-.2-.6a2.13 2.13 0 0 0-.43-.18.72.72 0 0 0-.17-.02l-7.2-.2.1-3.1 8.3.2c.2 0 .4-.1.6-.2.1-.1.2-.3.2-.5l.1-2.5c0-.4-.4-.8-.8-.8l-12.1-.3c-.4 0-.8.4-.8.8l-.5 16.8c0 .4.4.8.8.8l12.2.3Z"></path></svg>
